<svg width="43" height="34" viewBox="0 0 43 34" fill="none" xmlns="http://www.w3.org/2000/svg">
<g clip-path="url(#clip0_469_98)">
<path fill-rule="evenodd" clip-rule="evenodd" d="M32 24H28.2V17.3509C28.2 15.5269 27.3954 14.5093 25.9523 14.5093C24.382 14.5093 23.45 15.5697 23.45 17.3509V24H19.65V11.65H23.45V13.0388C23.45 13.0388 24.6422 10.9468 27.3288 10.9468C30.0164 10.9468 32 12.5868 32 15.9802V24ZM15.3199 9.67485C14.0384 9.67485 13 8.62801 13 7.33696C13 6.04686 14.0384 5 15.3199 5C16.6005 5 17.6388 6.04686 17.6388 7.33696C17.6398 8.62801 16.6005 9.67485 15.3199 9.67485ZM13 24H17.75V11.65H13V24Z" fill="#C7F5F5"/>
</g>
<path d="M1 12.3778V1H11.6442M32.9327 33H42V24.1111" stroke="#C7F5F5"/>
<defs>
<clipPath id="clip0_469_98">
<rect width="19" height="19" fill="white" transform="translate(13 5)"/>
</clipPath>
</defs>
</svg>
