<svg width="26" height="26" viewBox="0 0 26 26" fill="none" xmlns="http://www.w3.org/2000/svg">
<path fill-rule="evenodd" clip-rule="evenodd" d="M24.375 19.5C24.375 19.6649 24.3433 19.8209 24.2978 19.9696L17.0625 12.1875L24.375 6.5V19.5ZM2.88925 21.0811L10.2212 13.2681L13 15.3684L15.6585 13.2551L23.1108 21.0811C22.9946 21.1079 3.00544 21.1079 2.88925 21.0811ZM1.625 19.5V6.5L8.9375 12.1875L1.70219 19.9696C1.65669 19.8209 1.625 19.6649 1.625 19.5ZM23.5625 4.875L13 13L2.4375 4.875H23.5625ZM22.75 3.25H3.25C1.45519 3.25 0 4.70519 0 6.5V19.5C0 21.2948 1.45519 22.75 3.25 22.75H22.75C24.5448 22.75 26 21.2948 26 19.5V6.5C26 4.70519 24.5448 3.25 22.75 3.25Z" fill="#C7F5F5"/>
</svg>
